<?xml version="1.0" encoding="UTF-8"?>
<svg id="Capa_1" data-name="Capa 1" xmlns="http://www.w3.org/2000/svg" viewBox="0 0 358.11 383.17">
  <defs>
    <style>
      .cls-1 {
        fill: #2a378c;
      }

      .cls-2 {
        fill: #fdde7c;
      }

      .cls-3 {
        fill: #020303;
      }

      .cls-4 {
        fill: #bfd3e2;
      }

      .cls-5 {
        fill: #b0e3f8;
      }

      .cls-6 {
        fill: #d9e5ed;
      }

      .cls-7 {
        fill: #91d8f8;
      }

      .cls-8 {
        fill: #d3dfe7;
      }

      .cls-9 {
        fill: #f7f4f4;
      }

      .cls-10 {
        fill: #f9cb62;
      }

      .cls-11 {
        fill: #242e79;
      }

      .cls-12 {
        fill: #7db0f5;
      }

      .cls-13 {
        fill: #e2ab4a;
      }

      .cls-14 {
        fill: #96b7d0;
      }

      .cls-15 {
        fill: #d7599d;
      }
    </style>
  </defs>
  <path class="cls-3" d="M107.97,383.17c-6.02-3.48-6.96-6.16-4.52-12.9,.55-1.52,1.11-3.04,1.61-4.57,2.52-7.61,8.01-11.27,15.76-12.3,3.58-.47,7.44,1.38,10.76-1.48,5.32-4.58,9.27-10.05,11.33-16.79,1.33-4.36,1.2-8.84,.99-13.35-.14-2.92-1.19-3.89-4.27-3.88-40.02,.11-80.05,.09-120.07,.07-9.48,0-16.47-5.02-18.92-13.37-.61-2.07-.63-4.18-.63-6.3C0,232.08,0,165.87,.01,99.65c0-12.44,7.32-19.7,19.75-19.73,9.6-.02,19.2-.11,28.8,.07,2.78,.05,3.55-.64,3.53-3.49-.13-19.58-.08-39.15-.07-58.73C52.03,6.06,58.04,.04,69.72,.04,104,.04,138.29,.12,172.58,0c11.35-.04,19.51,4.78,24.88,14.71,2.06,3.81,3.2,9.05,6.72,10.88,3.35,1.74,8.27,.49,12.5,.5,9.85,.02,19.7,.14,29.55-.06,4.15-.09,6.68,1.38,7.63,5.44-1.53,4.95-2.8,5.85-8.45,5.85-59.48,0-118.96,.02-178.44-.05-2.77,0-3.79,.48-3.79,3.59,.11,47.02,.08,94.03,.08,141.05,0,4.48,.69,5.14,5.22,5.14,44.27,0,88.54-.01,132.8,.05,2.24,0,3.57-.68,4.91-2.47,8.88-11.88,17.9-23.64,26.84-35.47,2-2.64,4.34-4.82,7.42-6.07,6.78-2.76,14.04-.66,18.93,5.66,8.91,11.52,17.73,23.11,26.58,34.67,1.15,2.93,3.21,4.3,6.37,3.55,2.3-.55,2.55-2.39,2.55-4.38-.01-46.95-.02-93.9,.02-140.85,0-3.12-1.12-4.73-4.4-4.43-1.23,.11-2.48,.14-3.71,.2-4.95-.06-9.91-.1-14.86-.19-4.55-.08-6.13-1.4-7.13-5.86,.65-3.82,2.91-5.46,6.78-5.4,6.61,.12,13.22-.01,19.82,.04,8.82,.07,14.6,5.87,14.67,14.89,.09,11.85,.13,23.69-.05,35.54-.04,2.91,.85,3.5,3.57,3.45,9.85-.17,19.7-.11,29.55-.05,11.28,.07,18.93,7.42,18.94,18.63,.07,66.84,.06,133.67,0,200.51-.01,11.3-7.8,18.86-19.19,18.89-23.32,.05-46.63,.02-69.95,0-4.9,0-6.24-1.07-7.63-5.88,.95-4.07,3.55-5.53,7.65-5.4,6.47,.21,12.94,.07,19.41,.05,16.67-.05,33.35-.12,50.02-.18,5.7,.16,8.41-2.25,8.45-7.81,.07-10.31,.02-20.62,.02-30.93q0-6.85-6.97-6.42c-1.12-.05-2.23-.14-3.35-.14-107,0-214,0-321,0-1.12,0-2.24,.07-3.35,.11-.48-.12-.82-.05-.74,.56-.06,12.71-.19,25.41-.12,38.12,.02,3.69,2.65,6.17,6.37,6.62,1.23,.15,2.49,.07,3.74,.07,73.67,0,147.33,0,221,0,5.41,0,6.58,.81,7.93,5.37-.99,4.49-2.57,5.83-7.14,5.85-8.46,.04-16.91,.13-25.37-.06-2.68-.06-3.36,1.03-3.62,3.34-1.42,12.49,2.83,22.65,12.36,30.75,1.25,1.06,2.48,1.42,4.03,1.4,3.23-.05,6.47-.2,9.65,.57,5.68,1.36,9.87,4.51,12.06,10.04,.82,2.07,1.55,4.18,2.31,6.28,2.43,6.74,1.49,9.4-4.52,12.89H107.97Zm231.93-133.29c.62,.04,1.24,.1,1.86,.11q4.97,.07,4.98-5.03c0-48.47,0-96.94,0-145.41,0-6.07-2.37-8.36-8.32-8.17-9.84-.05-19.68-.02-29.52-.18-4.03-.07-2.46,2.8-2.72,4.69-.3,2.22,0,3.76,3.01,3.68,7.22-.2,14.45-.07,21.68-.06,6.12,0,7.64,1.55,7.64,7.77,0,32.27,0,64.54,0,96.81,0,14.08-.03,28.16,.06,42.24,0,1.19-1.15,3.17,1.34,3.56Zm-137.4,75.74c.14-1.11,.17-2.24,.44-3.31,.92-3.64-.45-4.5-4.08-4.42-12.33,.25-24.67,.09-37,.09q-7.4,0-6.28,7.64c-.27,10.04-3.05,19.25-9.57,27.57h66.13c-6.59-8.31-9.32-17.54-9.63-27.57Zm82.78-96.71c3.86,.04,7.73,.24,11.58,.08,4.02-.17,5.83-3.71,3.83-7.17-.56-.96-1.3-1.83-1.97-2.72-15.06-19.85-30.11-39.7-45.18-59.55-6.71-8.84-8.3-8.76-14.55,.65-9.6,12.56-19.2,25.11-28.79,37.68-5.82,7.62-11.6,15.27-17.4,22.91-1.25,1.65-2.16,3.36-1.13,5.5,1.08,2.22,2.94,2.83,5.24,2.76,2.24-.07,4.49-.03,6.73,0,4.63,.05,6.11,1.24,7.23,5.79-.76,3.95-3.17,5.66-7.17,5.46-2.86-.14-5.74,.04-8.6-.07-7.01-.27-12.82-5.09-14.59-11.85-1.38-5.24-.07-9.84,3.1-14.04,3.93-5.2,7.85-10.41,12.1-16.05h-4.78c-40.53,0-81.05,0-121.58,0-12.11,0-17.33-5.19-17.33-17.23,0-22.32-.06-44.65,.07-66.97,.02-2.83-.72-3.6-3.5-3.46-4.6,.24-9.24,.31-13.83-.01-3.31-.23-4.06,.76-4.05,4.04,.12,43.65,.13,87.3,0,130.95-.01,3.46,.59,4.52,4.34,4.51,93.4-.12,186.8-.1,280.2-.1,1.24,0,2.49-.08,3.73-.13,1.12,.04,2.23,.12,3.35,.13q4.98,.02,4.99-4.8c0-42.24,0-84.47,0-126.71q0-8.17-8.34-7.66c-3.11-.05-6.25,.11-9.33-.21-3.04-.31-3.64,.85-3.62,3.69,.12,22.7,.04,45.39,.08,68.09,.01,6.22-2.1,11.25-7.8,14.22-1.65,.86-1.51,1.4-.52,2.68,3.83,4.92,7.54,9.92,11.31,14.88,4.05,5.33,5.03,11.11,2.03,17.17-3.06,6.19-8.3,8.94-15.18,8.93-22.19-.05-44.39-.08-66.58,.04-4.14,.02-6.67-1.46-7.6-5.51,1.54-4.94,2.67-5.76,8.04-5.77,18.49-.05,36.99-.09,55.48-.13ZM11.33,172.24c0,24.68-.01,49.35,.04,74.03,0,1.23-.74,2.83,1.01,3.61,3.91,1.76,7.23-.31,7.23-4.5,0-46.24,0-92.47,0-138.71,0-5.54,1.6-7.15,7.04-7.17,7.35-.02,14.71-.21,22.05,.08,3.68,.14,3.25-1.94,3.27-4.24,.02-2.34,.3-4.3-3.31-4.21-9.46,.25-18.94,.08-28.41,.09-6.84,0-8.92,2.06-8.92,8.85,0,24.05,0,48.11,0,72.16Zm103.83,199.58h127.77c-1.31-5.96-2.77-7.22-8.53-7.22-36.9-.01-73.79-.01-110.69,0-5.77,0-7.19,1.22-8.56,7.22ZM95.27,26.1c9.71,0,19.42,.02,29.14-.04,.92,0,2.87,.86,2.14-1.62-2.44-8.37-8.86-13.17-17.71-13.18-11.33,0-22.66,.06-33.99-.02-12.2-.09-11.64-.6-11.65,11.94,0,2.27,.63,2.99,2.94,2.96,9.71-.12,19.42-.05,29.13-.05Zm36.93-14.66c2.61,4.76,4.99,9.08,7.37,13.41,.45,.81,1.03,1.28,2.06,1.28,5.65-.04,11.3-.02,17.12-.02-5.27-13.32-9.47-15.64-26.55-14.66Zm31.59-.17c2.7,4.86,5.12,9.16,7.46,13.51,.65,1.22,1.61,1.35,2.79,1.34,4.73-.02,9.46-.06,14.18,.01,1.97,.03,2.3-.39,1.46-2.33-3.75-8.62-9.54-13.81-19.6-12.57-1.84,.23-3.72,.03-6.29,.03Z"/>
  <path class="cls-9" d="M264.79,31.46c1,4.46,2.58,5.78,7.13,5.86,4.95,.09,9.91,.13,14.86,.19,0,47.36,.02,94.72,0,142.08,0,1.3,.5,2.78-.82,3.83-8.86-11.56-17.67-23.16-26.58-34.67-4.89-6.32-12.15-8.42-18.93-5.66-3.08,1.26-5.43,3.43-7.42,6.07-8.94,11.83-17.96,23.6-26.84,35.47-1.34,1.79-2.67,2.47-4.91,2.47-44.27-.07-88.54-.05-132.8-.05-4.53,0-5.22-.67-5.22-5.14,0-47.02,.03-94.03-.08-141.05,0-3.11,1.02-3.59,3.79-3.59,59.48,.07,118.96,.06,178.44,.05,5.65,0,6.92-.9,8.45-5.85,3.65,0,7.29,0,10.94-.01Zm-64.77,70.89c0-4.48,.1-8.97-.02-13.45-.31-11.21-9.57-20.09-20.85-20.13-11.46-.04-20.85,8.91-21.05,20.3-.15,8.59-.14,17.19,0,25.79,.17,11.41,9.52,20.54,20.86,20.59,11.35,.05,20.77-9.03,21.06-20.39,.11-4.23,.02-8.47,.02-12.71Zm-59.4-11.57s-.04,0-.05,0c0-3.49,.04-6.98,0-10.47-.1-7.04-2.21-10.66-6.81-11.87-4.04-1.06-7.88,1.05-11.25,6.79-6.36,10.82-12.58,21.73-18.72,32.68-2.76,4.92-.27,8.96,5.42,9.04,5.36,.08,10.72,.2,16.07-.05,3.01-.14,4.35,.56,3.95,3.81-.27,2.21-.22,4.49-.01,6.72,.3,3.31,2.6,5.31,5.67,5.26,3.13-.05,5.19-2.04,5.41-5.46,.15-2.36,.19-4.74,.09-7.1-.09-2.01,.23-3.17,2.67-3.4,2.49-.23,3.83-2.19,4.17-4.63,.32-2.31-.54-4.91-2.6-5.26-5.01-.86-3.99-4.29-4-7.46,0-2.87,0-5.73,0-8.6Zm108.05-.16s-.01,0-.02,0c0-3.86,.02-7.73,0-11.59-.04-5.69-2.3-9.3-6.56-10.52-3.78-1.09-7.59,.67-10.53,5.3-7.15,11.23-13.47,22.94-19.86,34.61-2.39,4.37,.1,8.36,5.07,8.52,3.86,.13,7.73,0,11.59,.04,2.85,.03,6.58-.94,8.31,.48,2.07,1.71,.4,5.59,.68,8.52,.02,.25,0,.5,0,.75,.15,3.61,2.14,5.83,5.33,5.95,3.33,.13,5.68-2.15,5.86-5.86,.13-2.61,.09-5.23,.05-7.85-.02-1.31,.27-1.97,1.8-2.11,3.19-.29,4.93-2.26,4.98-5.45,.04-3.05-1.68-5.03-4.61-5.41-2.2-.29-2.12-1.49-2.1-3.05,.04-4.11,.01-8.23,.01-12.34Z"/>
  <path class="cls-6" d="M338.39,306.56c-16.67,.06-33.35,.13-50.02,.18-6.47,.02-12.95,.15-19.41-.05-4.1-.13-6.7,1.33-7.65,5.4-3.65,0-7.29,.01-10.94,.02-1.35-4.56-2.52-5.37-7.93-5.37-73.67,0-147.33,0-221,0-1.25,0-2.51,.08-3.74-.07-3.72-.45-6.35-2.92-6.37-6.62-.07-12.7,.06-25.41,.12-38.12,.25-.19,.49-.37,.74-.56,1.12-.04,2.24-.11,3.35-.11,107,0,214,0,321,0,1.12,0,2.23,.09,3.35,.14,0,6.82,.18,13.65-.02,20.47-.25,8.24,1.2,16.6-1.48,24.7Zm-159.19-16.96c1.87,0,3.73,0,5.6,0,.25,0,.5,.01,.75,0,3.43-.27,5.63-2.56,5.56-5.76-.07-3.02-2.22-5.3-5.49-5.41-4.35-.14-8.71-.14-13.06,0-3.45,.11-5.63,2.51-5.56,5.72,.07,3.02,2.24,5.24,5.49,5.43,2.23,.13,4.48,.02,6.71,.03Z"/>
  <path class="cls-5" d="M221.76,234.82c.92,4.06,3.46,5.54,7.6,5.51,22.19-.12,44.39-.09,66.58-.04,6.88,.02,12.12-2.74,15.18-8.93,3-6.06,2.01-11.84-2.03-17.17-3.77-4.96-7.48-9.97-11.31-14.88-.99-1.27-1.13-1.82,.52-2.68,5.7-2.97,7.81-8,7.8-14.22-.04-22.7,.04-45.39-.08-68.09-.01-2.85,.59-4,3.62-3.69,3.09,.31,6.22,.16,9.33,.21,0,46.35,0,92.69,0,139.04-1.24,.05-2.49,.13-3.73,.13-93.4,0-186.8-.02-280.2,.1-3.74,0-4.35-1.05-4.34-4.51,.13-43.65,.12-87.3,0-130.95,0-3.29,.74-4.27,4.05-4.04,4.59,.32,9.23,.26,13.83,.01,2.78-.15,3.52,.62,3.5,3.46-.13,22.32-.07,44.65-.07,66.97,0,12.04,5.23,17.23,17.33,17.23,40.53,0,81.05,0,121.58,0h4.78c-4.25,5.64-8.18,10.84-12.1,16.05-3.18,4.21-4.48,8.8-3.1,14.04,1.78,6.77,7.59,11.58,14.59,11.85,2.86,.11,5.74-.07,8.6,.07,4,.2,6.4-1.51,7.16-5.46,3.63,0,7.26-.01,10.89-.02Z"/>
  <path class="cls-2" d="M221.76,234.82c-3.63,0-7.26,.02-10.89,.02-1.13-4.56-2.6-5.75-7.23-5.79-2.24-.02-4.49-.06-6.73,0-2.3,.07-4.16-.54-5.24-2.76-1.04-2.14-.13-3.85,1.13-5.5,5.8-7.64,11.58-15.29,17.4-22.91,9.59-12.57,19.19-25.12,28.79-37.68,1.6,1.25,3.4,2.34,3.74,4.62-.72,1.14-1.78,2.14-1.78,3.6-.03,9.94-.2,19.88,.05,29.81,.09,3.61,3.66,5.62,7.06,4.56,3.12-.98,3.94-3.47,3.97-6.43,.05-6.33,.14-12.66,.21-18.99,.4,.27,.92,.47,1.2,.84,9.51,12.47,18.94,24.99,28.52,37.41,3.1,4.02,5.15,8.13,3.33,13.3-18.49,.04-36.99,.09-55.48,.13-5.37,.01-6.5,.83-8.04,5.77Zm19-20.62c-.03,4.29,2.12,6.8,5.74,6.73,3.48-.07,5.48-2.47,5.5-6.6,.02-4.13-2.32-6.93-5.75-6.84-3.3,.08-5.48,2.73-5.5,6.71Z"/>
  <path class="cls-1" d="M11.33,172.24c0-24.05,0-48.11,0-72.16,0-6.79,2.08-8.84,8.92-8.85,9.47,0,18.95,.16,28.41-.09,3.61-.1,3.33,1.86,3.31,4.21-.02,2.29,.41,4.38-3.27,4.24-7.34-.29-14.7-.1-22.05-.08-5.44,.01-7.04,1.62-7.04,7.17,0,46.24,0,92.47,0,138.71,0,4.19-3.32,6.26-7.23,4.5-1.75-.79-1.01-2.39-1.01-3.61-.05-24.68-.04-49.35-.04-74.03Z"/>
  <path class="cls-4" d="M202.5,325.62c.31,10.03,3.04,19.25,9.63,27.57h-66.13c6.52-8.32,9.31-17.53,9.57-27.57,15.64,0,31.28,0,46.93,0Z"/>
  <path class="cls-8" d="M285.96,183.42c1.32-1.05,.82-2.53,.82-3.83,.02-47.36,0-94.72,0-142.08,1.24-.06,2.48-.09,3.71-.2,3.28-.3,4.4,1.32,4.4,4.43-.04,46.95-.03,93.9-.02,140.85,0,2-.25,3.83-2.55,4.38-3.15,.75-5.22-.61-6.37-3.55Z"/>
  <path class="cls-7" d="M318.97,249.89c0-46.35,0-92.69,0-139.04q8.34-.51,8.34,7.66c0,42.24,0,84.47,0,126.71q0,4.81-4.99,4.8c-1.12,0-2.23-.08-3.35-.13Z"/>
  <path class="cls-11" d="M338.41,91.37c5.95-.2,8.32,2.1,8.32,8.17,0,48.47,0,96.94,0,145.41q0,5.1-4.98,5.03c-.62,0-1.24-.07-1.86-.11,0-49.18,0-98.36,.05-147.54,0-3.76-.16-7.43-1.54-10.97Z"/>
  <path class="cls-10" d="M242.72,164.82c-.34-2.27-2.14-3.37-3.74-4.62,6.25-9.41,7.84-9.49,14.55-.65,15.07,19.84,30.12,39.7,45.18,59.55,.68,.89,1.41,1.76,1.97,2.72,2.01,3.46,.2,7-3.83,7.17-3.85,.16-7.72-.04-11.58-.08,1.82-5.17-.23-9.28-3.33-13.3-9.57-12.42-19.01-24.94-28.52-37.41-.28-.37-.79-.56-1.2-.84-.08-2.21-.16-4.41-.22-6.62-.18-6.2-3.43-8.28-9.29-5.93Z"/>
  <path class="cls-8" d="M115.16,371.82c1.37-6,2.78-7.22,8.56-7.22,36.9-.01,73.79-.01,110.69,0,5.76,0,7.22,1.26,8.53,7.22H115.16Z"/>
  <path class="cls-12" d="M95.27,26.1c-9.71,0-19.42-.07-29.13,.05-2.31,.03-2.94-.69-2.94-2.96,.01-12.54-.55-12.03,11.65-11.94,11.33,.08,22.66,.01,33.99,.02,8.84,0,15.27,4.8,17.71,13.18,.72,2.48-1.22,1.62-2.14,1.62-9.71,.06-19.42,.04-29.14,.04Z"/>
  <path class="cls-1" d="M338.41,91.37c1.37,3.54,1.54,7.21,1.54,10.97-.05,49.18-.04,98.36-.05,147.54-2.49-.39-1.33-2.37-1.34-3.56-.09-14.08-.06-28.16-.06-42.24,0-32.27,0-64.54,0-96.81,0-6.22-1.52-7.76-7.64-7.77-7.23,0-14.46-.14-21.68,.06-3.02,.08-3.31-1.46-3.01-3.68,.26-1.89-1.31-4.76,2.72-4.69,9.84,.16,19.68,.13,29.52,.18Z"/>
  <path class="cls-14" d="M202.5,325.62c-15.64,0-31.28,0-46.93,0q-1.12-7.64,6.28-7.64c12.33,0,24.67,.15,37-.09,3.63-.07,5,.78,4.08,4.42-.27,1.07-.3,2.21-.44,3.31Z"/>
  <path class="cls-4" d="M338.39,306.56c2.68-8.1,1.24-16.45,1.48-24.7,.2-6.82,.03-13.64,.02-20.47q6.97-.43,6.97,6.42c0,10.31,.05,20.62-.02,30.93-.04,5.56-2.75,7.97-8.45,7.81Z"/>
  <path class="cls-13" d="M132.19,11.44c17.08-.98,21.28,1.34,26.55,14.66-5.82,0-11.47-.02-17.12,.02-1.03,0-1.62-.46-2.06-1.28-2.38-4.33-4.75-8.65-7.37-13.41Z"/>
  <path class="cls-15" d="M163.78,11.26c2.56,0,4.45,.19,6.29-.03,10.06-1.25,15.85,3.95,19.6,12.57,.85,1.94,.51,2.36-1.46,2.33-4.73-.07-9.46-.04-14.18-.01-1.18,0-2.13-.12-2.79-1.34-2.34-4.35-4.76-8.64-7.46-13.51Z"/>
  <path class="cls-4" d="M12.19,261.38c-.25,.19-.49,.37-.74,.56-.08-.62,.26-.68,.74-.56Z"/>
  <path class="cls-3" d="M200.03,102.34c0,4.24,.09,8.47-.02,12.71-.29,11.37-9.71,20.44-21.06,20.39-11.34-.05-20.69-9.18-20.86-20.59-.13-8.59-.14-17.19,0-25.79,.2-11.39,9.59-20.34,21.05-20.3,11.28,.04,20.54,8.92,20.85,20.13,.13,4.48,.02,8.97,.02,13.45Zm-11.23-.19c0-4.23,.12-8.46-.03-12.69-.19-5.58-4.44-9.54-9.9-9.46-5.26,.07-9.43,4.04-9.53,9.45-.15,8.33-.14,16.67,0,25,.09,5.58,4.39,9.74,9.72,9.73,5.33,0,9.57-4.15,9.74-9.73,.12-4.1,.02-8.21,.02-12.31Z"/>
  <path class="cls-3" d="M140.63,90.78c0,2.87,0,5.73,0,8.6,0,3.17-1.01,6.6,4,7.46,2.06,.35,2.92,2.95,2.6,5.26-.33,2.44-1.68,4.39-4.17,4.63-2.45,.23-2.76,1.39-2.67,3.4,.1,2.36,.06,4.74-.09,7.1-.22,3.42-2.28,5.41-5.41,5.46-3.07,.05-5.37-1.95-5.67-5.26-.2-2.22-.26-4.51,.01-6.72,.4-3.26-.94-3.95-3.95-3.81-5.35,.25-10.71,.13-16.07,.05-5.7-.08-8.18-4.12-5.42-9.04,6.14-10.95,12.36-21.86,18.72-32.68,3.37-5.74,7.21-7.84,11.25-6.79,4.6,1.2,6.7,4.82,6.81,11.87,.05,3.49,0,6.98,0,10.47,.02,0,.04,0,.05,0Zm-11.21-3.93c-.24-.11-.49-.21-.73-.32-3.54,6.25-7.08,12.49-10.91,19.24,3.59,0,6.43-.11,9.25,.04,2.1,.11,2.44-.88,2.42-2.67-.08-5.43-.03-10.86-.03-16.29Z"/>
  <path class="cls-3" d="M248.68,90.62c0,4.11,.03,8.23-.01,12.34-.02,1.56-.1,2.76,2.1,3.05,2.93,.38,4.66,2.37,4.61,5.41-.04,3.19-1.78,5.16-4.98,5.45-1.53,.14-1.82,.79-1.8,2.11,.05,2.62,.08,5.24-.05,7.85-.18,3.71-2.53,5.98-5.86,5.86-3.19-.12-5.18-2.34-5.33-5.95-.01-.25,.02-.5,0-.75-.29-2.93,1.39-6.81-.68-8.52-1.73-1.43-5.47-.46-8.31-.48-3.86-.04-7.73,.08-11.59-.04-4.98-.16-7.46-4.15-5.07-8.52,6.39-11.67,12.71-23.38,19.86-34.61,2.95-4.63,6.75-6.38,10.53-5.3,4.26,1.22,6.52,4.83,6.56,10.52,.03,3.86,0,7.73,0,11.59,0,0,.01,0,.02,0Zm-11.23-3.71c-.22-.08-.43-.17-.65-.25-3.52,6.19-7.04,12.38-10.85,19.08,3.37,0,6.19-.11,8.99,.04,1.89,.1,2.6-.4,2.55-2.44-.14-5.47-.05-10.95-.05-16.43Z"/>
  <path class="cls-3" d="M179.2,289.6c-2.24,0-4.48,.1-6.71-.03-3.25-.19-5.42-2.41-5.49-5.43-.08-3.21,2.1-5.61,5.56-5.72,4.35-.14,8.71-.14,13.06,0,3.27,.11,5.42,2.38,5.49,5.41,.08,3.19-2.13,5.48-5.56,5.76-.25,.02-.5,0-.75,0-1.87,0-3.73,0-5.6,0Z"/>
  <path class="cls-3" d="M242.72,164.82c5.86-2.35,9.11-.27,9.29,5.93,.06,2.21,.15,4.41,.22,6.62-.07,6.33-.16,12.66-.21,18.99-.02,2.97-.84,5.46-3.97,6.43-3.4,1.06-6.97-.95-7.06-4.56-.25-9.93-.08-19.87-.05-29.81,0-1.46,1.06-2.47,1.78-3.6Z"/>
  <path class="cls-3" d="M240.76,214.2c.02-3.98,2.2-6.63,5.5-6.71,3.42-.08,5.77,2.71,5.75,6.84-.02,4.13-2.03,6.53-5.5,6.6-3.62,.07-5.77-2.45-5.74-6.73Z"/>
  <path class="cls-9" d="M188.8,102.16c0,4.1,.1,8.21-.02,12.31-.17,5.58-4.41,9.73-9.74,9.73-5.33,0-9.63-4.15-9.72-9.73-.13-8.33-.14-16.67,0-25,.09-5.42,4.27-9.38,9.53-9.45,5.47-.08,9.71,3.88,9.9,9.46,.14,4.22,.03,8.46,.03,12.69Z"/>
  <path class="cls-6" d="M129.41,86.85c0,5.43-.05,10.86,.03,16.29,.03,1.79-.31,2.78-2.42,2.67-2.83-.15-5.66-.04-9.25-.04,3.83-6.75,7.37-13,10.91-19.24,.24,.11,.49,.21,.73,.32Z"/>
  <path class="cls-9" d="M237.45,86.9c0,5.48-.09,10.96,.05,16.43,.05,2.04-.66,2.54-2.55,2.44-2.81-.15-5.62-.04-8.99-.04,3.81-6.7,7.33-12.89,10.85-19.08,.22,.08,.43,.17,.65,.25Z"/>
</svg>